<svg width="65" height="66" viewBox="0 0 65 66" fill="none" xmlns="http://www.w3.org/2000/svg">
<circle cx="32.5" cy="33.3853" r="32.5" fill="black"/>
<path d="M24.038 41.9614C23.6475 42.3519 23.6475 42.985 24.038 43.3756C24.4285 43.7661 25.0617 43.7661 25.4522 43.3756L24.038 41.9614ZM42.6843 25.7293C42.6843 25.177 42.2366 24.7293 41.6843 24.7293H32.6843C32.132 24.7293 31.6843 25.177 31.6843 25.7293C31.6843 26.2816 32.132 26.7293 32.6843 26.7293H40.6843V34.7293C40.6843 35.2816 41.132 35.7293 41.6843 35.7293C42.2366 35.7293 42.6843 35.2816 42.6843 34.7293V25.7293ZM25.4522 43.3756L42.3914 26.4364L40.9772 25.0222L24.038 41.9614L25.4522 43.3756Z" fill="white"/>
</svg>
