<svg width="13" height="12" viewBox="0 0 13 12" fill="none" xmlns="http://www.w3.org/2000/svg">
<path d="M1.54984 0.228024C1.35458 0.0327621 1.038 0.0327622 0.842736 0.228024C0.647474 0.423286 0.647473 0.739869 0.842736 0.935131L5.79247 5.88486L0.842736 10.8346C0.647473 11.0299 0.647474 11.3464 0.842736 11.5417C1.038 11.737 1.35458 11.737 1.54984 11.5417L6.49957 6.59197L11.4493 11.5417C11.6446 11.737 11.9612 11.737 12.1564 11.5417C12.3517 11.3465 12.3517 11.0299 12.1564 10.8346L7.20668 5.88486L12.1564 0.935097C12.3517 0.739835 12.3517 0.423252 12.1564 0.227989C11.9612 0.0327275 11.6446 0.0327275 11.4493 0.227989L6.49957 5.17775L1.54984 0.228024Z" fill="black"/>
</svg>
