<svg width="121" height="66" viewBox="0 0 121 66" fill="none" xmlns="http://www.w3.org/2000/svg">
<path d="M0 0.0185547L7.52923 2.06038H15.0585H30.1169H60.2338H116.468C118.677 2.06038 120.468 3.85124 120.468 6.06038V61.357C120.468 63.5661 118.677 65.357 116.468 65.357H60.2338H30.1169H15.0585C15.0585 65.357 10.2091 65.357 7.52923 65.357C4.84933 65.357 0 62.2942 0 62.2942V0.0185547Z" fill="#DA4B54"/>
<path d="M27.3784 46.1855V20.0037H31.3287V31.3816H44.3812V20.0037H48.3443V46.1855H44.3812V34.7694H31.3287V46.1855H27.3784ZM62.0616 46.5819C60.2207 46.5819 58.6142 46.16 57.242 45.3162C55.8699 44.4725 54.8045 43.2921 54.046 41.775C53.2875 40.258 52.9082 38.4853 52.9082 36.4569C52.9082 34.4199 53.2875 32.6387 54.046 31.1131C54.8045 29.5875 55.8699 28.4029 57.242 27.5591C58.6142 26.7154 60.2207 26.2935 62.0616 26.2935C63.9025 26.2935 65.5091 26.7154 66.8812 27.5591C68.2534 28.4029 69.3187 29.5875 70.0772 31.1131C70.8358 32.6387 71.215 34.4199 71.215 36.4569C71.215 38.4853 70.8358 40.258 70.0772 41.775C69.3187 43.2921 68.2534 44.4725 66.8812 45.3162C65.5091 46.16 63.9025 46.5819 62.0616 46.5819ZM62.0744 43.373C63.2676 43.373 64.2562 43.0577 65.0403 42.427C65.8244 41.7963 66.4039 40.9569 66.7789 39.9086C67.1625 38.8603 67.3542 37.7054 67.3542 36.4441C67.3542 35.1912 67.1625 34.0407 66.7789 32.9924C66.4039 31.9355 65.8244 31.0875 65.0403 30.4483C64.2562 29.8091 63.2676 29.4895 62.0744 29.4895C60.8727 29.4895 59.8755 29.8091 59.0829 30.4483C58.2988 31.0875 57.715 31.9355 57.3315 32.9924C56.9565 34.0407 56.769 35.1912 56.769 36.4441C56.769 37.7054 56.9565 38.8603 57.3315 39.9086C57.715 40.9569 58.2988 41.7963 59.0829 42.427C59.8755 43.0577 60.8727 43.373 62.0744 43.373ZM84.6479 26.5492V29.6174H73.9221V26.5492H84.6479ZM76.7985 21.8446H80.6209V40.4199C80.6209 41.1614 80.7317 41.7196 80.9533 42.0946C81.1749 42.4611 81.4604 42.7125 81.8098 42.8489C82.1678 42.9767 82.5556 43.0407 82.9732 43.0407C83.28 43.0407 83.5485 43.0194 83.7786 42.9767C84.0087 42.9341 84.1877 42.9 84.3155 42.8745L85.0059 46.0321C84.7843 46.1174 84.4689 46.2026 84.0598 46.2878C83.6507 46.3816 83.1394 46.4327 82.5257 46.4412C81.5201 46.4583 80.5826 46.2793 79.7132 45.9043C78.8439 45.5293 78.1408 44.9498 77.6039 44.1657C77.0669 43.3816 76.7985 42.3972 76.7985 41.2125V21.8446ZM93.6958 20.0037L93.3635 38.6557H89.8223L89.4899 20.0037H93.6958ZM91.5993 46.4284C90.8919 46.4284 90.2868 46.1813 89.7839 45.687C89.2811 45.1841 89.0339 44.579 89.0424 43.8716C89.0339 43.1728 89.2811 42.5762 89.7839 42.0819C90.2868 41.579 90.8919 41.3276 91.5993 41.3276C92.2896 41.3276 92.8862 41.579 93.389 42.0819C93.8919 42.5762 94.1476 43.1728 94.1561 43.8716C94.1476 44.3404 94.024 44.7708 93.7853 45.1628C93.5552 45.5463 93.2484 45.8532 92.8649 46.0833C92.4814 46.3134 92.0595 46.4284 91.5993 46.4284Z" fill="white"/>
</svg>
