<svg width="143" height="36" viewBox="0 0 143 36" fill="none" xmlns="http://www.w3.org/2000/svg">
<path d="M17.5 0.885254L19.9652 9.98969L26.9612 3.66332L24.1128 12.6552L33.4186 11.1155L26.1609 17.14L34.8219 20.8758L25.4593 22.0201L30.7256 29.8453L22.2306 25.7462L22.4303 35.1764L17.5 27.1353L12.5697 35.1764L12.7694 25.7462L4.27438 29.8453L9.54072 22.0201L0.178125 20.8758L8.83906 17.14L1.58144 11.1155L10.8872 12.6552L8.03879 3.66332L15.0348 9.98969L17.5 0.885254Z" fill="#598D66"/>
<path d="M44.48 25.8853V11.6853H47.24V25.8853H44.48ZM59.6827 25.8853H57.0027V20.0053C57.0027 19.1653 56.856 18.5519 56.5627 18.1653C56.2693 17.7786 55.8627 17.5853 55.3427 17.5853C54.9827 17.5853 54.616 17.6786 54.2427 17.8653C53.8827 18.0519 53.556 18.3119 53.2627 18.6453C52.9693 18.9653 52.756 19.3386 52.6227 19.7653V25.8853H49.9427V15.4053H52.3627V17.3453C52.7493 16.6919 53.3093 16.1786 54.0427 15.8053C54.776 15.4186 55.6027 15.2253 56.5227 15.2253C57.176 15.2253 57.7093 15.3453 58.1227 15.5853C58.536 15.8119 58.856 16.1253 59.0827 16.5253C59.3093 16.9119 59.4627 17.3519 59.5427 17.8453C59.636 18.3386 59.6827 18.8386 59.6827 19.3453V25.8853ZM69.173 25.8853L66.113 21.3653L64.693 22.7653V25.8853H62.013V11.2853H64.693V20.1253L68.913 15.4253H71.753L67.853 19.8653L72.033 25.8853H69.173ZM73.1053 25.8853V23.0053H75.3053V25.8853H73.1053ZM94.6622 11.6853V25.8853H91.9222V19.8253H85.4822V25.8853H82.7222V11.6853H85.4822V17.4253H91.9222V11.6853H94.6622ZM102.029 26.0853C100.882 26.0853 99.8954 25.8386 99.0688 25.3453C98.2554 24.8386 97.6288 24.1719 97.1888 23.3453C96.7488 22.5186 96.5288 21.6253 96.5288 20.6653C96.5288 19.6919 96.7488 18.7919 97.1888 17.9653C97.6421 17.1386 98.2754 16.4786 99.0888 15.9853C99.9154 15.4786 100.895 15.2253 102.029 15.2253C103.162 15.2253 104.135 15.4786 104.949 15.9853C105.775 16.4786 106.409 17.1386 106.849 17.9653C107.289 18.7919 107.509 19.6919 107.509 20.6653C107.509 21.6253 107.289 22.5186 106.849 23.3453C106.409 24.1719 105.775 24.8386 104.949 25.3453C104.135 25.8386 103.162 26.0853 102.029 26.0853ZM99.2888 20.6653C99.2888 21.2786 99.4088 21.8253 99.6488 22.3053C99.8888 22.7719 100.215 23.1386 100.629 23.4053C101.042 23.6719 101.509 23.8053 102.029 23.8053C102.535 23.8053 102.995 23.6719 103.409 23.4053C103.822 23.1253 104.149 22.7519 104.389 22.2853C104.642 21.8053 104.769 21.2586 104.769 20.6453C104.769 20.0453 104.642 19.5119 104.389 19.0453C104.149 18.5653 103.822 18.1919 103.409 17.9253C102.995 17.6453 102.535 17.5053 102.029 17.5053C101.509 17.5053 101.042 17.6453 100.629 17.9253C100.215 18.1919 99.8888 18.5653 99.6488 19.0453C99.4088 19.5119 99.2888 20.0519 99.2888 20.6653ZM109.218 21.9653V15.4053H111.898V21.3853C111.898 22.9986 112.478 23.8053 113.638 23.8053C114.158 23.8053 114.658 23.6519 115.138 23.3453C115.631 23.0253 116.031 22.5453 116.338 21.9053V15.4053H119.018V22.8853C119.018 23.1786 119.064 23.3853 119.158 23.5053C119.251 23.6119 119.418 23.6786 119.658 23.7053V25.8853C119.391 25.9386 119.164 25.9719 118.978 25.9853C118.804 25.9986 118.644 26.0053 118.498 26.0053C118.018 26.0053 117.624 25.8986 117.318 25.6853C117.024 25.4586 116.851 25.1519 116.798 24.7653L116.738 23.9253C116.271 24.6453 115.671 25.1853 114.938 25.5453C114.204 25.9053 113.398 26.0853 112.518 26.0853C111.438 26.0853 110.618 25.7386 110.058 25.0453C109.498 24.3386 109.218 23.3119 109.218 21.9653ZM125.541 26.0853C124.648 26.0853 123.794 25.9386 122.981 25.6453C122.168 25.3519 121.468 24.9186 120.881 24.3453L121.841 22.6053C122.468 23.1119 123.081 23.4853 123.681 23.7253C124.281 23.9653 124.868 24.0853 125.441 24.0853C125.961 24.0853 126.374 23.9919 126.681 23.8053C127.001 23.6186 127.161 23.3386 127.161 22.9653C127.161 22.5786 126.968 22.3186 126.581 22.1853C126.194 22.0386 125.654 21.8586 124.961 21.6453C124.188 21.4053 123.541 21.1586 123.021 20.9053C122.501 20.6519 122.108 20.3453 121.841 19.9853C121.588 19.6253 121.461 19.1586 121.461 18.5853C121.461 17.5586 121.848 16.7386 122.621 16.1253C123.394 15.5119 124.421 15.2053 125.701 15.2053C126.448 15.2053 127.154 15.3253 127.821 15.5653C128.488 15.7919 129.094 16.1653 129.641 16.6853L128.561 18.3853C127.534 17.5853 126.541 17.1853 125.581 17.1853C125.154 17.1853 124.774 17.2653 124.441 17.4253C124.121 17.5853 123.961 17.8653 123.961 18.2653C123.961 18.6386 124.114 18.9053 124.421 19.0653C124.741 19.2253 125.221 19.3986 125.861 19.5853C126.688 19.8386 127.388 20.0853 127.961 20.3253C128.548 20.5653 128.988 20.8719 129.281 21.2453C129.588 21.6186 129.741 22.1253 129.741 22.7653C129.741 23.8053 129.361 24.6186 128.601 25.2053C127.841 25.7919 126.821 26.0853 125.541 26.0853ZM136.424 26.0853C135.29 26.0853 134.31 25.8386 133.484 25.3453C132.67 24.8519 132.037 24.1986 131.584 23.3853C131.13 22.5586 130.904 21.6653 130.904 20.7053C130.904 19.7186 131.124 18.8119 131.564 17.9853C132.017 17.1453 132.657 16.4786 133.484 15.9853C134.31 15.4786 135.297 15.2253 136.444 15.2253C137.59 15.2253 138.57 15.4786 139.384 15.9853C140.197 16.4786 140.817 17.1386 141.244 17.9653C141.684 18.7786 141.904 19.6586 141.904 20.6053C141.904 20.9519 141.884 21.2519 141.844 21.5053H133.744C133.81 22.3186 134.11 22.9586 134.644 23.4253C135.19 23.8919 135.817 24.1253 136.524 24.1253C137.057 24.1253 137.557 23.9986 138.024 23.7453C138.504 23.4786 138.83 23.1319 139.004 22.7053L141.304 23.3453C140.917 24.1453 140.297 24.8053 139.444 25.3253C138.59 25.8319 137.584 26.0853 136.424 26.0853ZM133.684 19.8053H139.164C139.084 19.0186 138.784 18.3853 138.264 17.9053C137.757 17.4119 137.137 17.1653 136.404 17.1653C135.684 17.1653 135.064 17.4119 134.544 17.9053C134.037 18.3853 133.75 19.0186 133.684 19.8053Z" fill="#598D66"/>
</svg>
