<svg width="94" height="33" viewBox="0 0 94 33" fill="none" xmlns="http://www.w3.org/2000/svg">
<path d="M11.2361 32.151C8.12008 32.151 5.56141 31.4164 3.56008 29.947C1.55874 28.4524 0.482078 26.3244 0.330078 23.563H8.27208C8.34808 24.5004 8.62674 25.1844 9.10808 25.615C9.58941 26.0457 10.2101 26.261 10.9701 26.261C11.6541 26.261 12.2114 26.0964 12.6421 25.767C13.0981 25.4124 13.3261 24.931 13.3261 24.323C13.3261 23.5377 12.9587 22.9297 12.2241 22.499C11.4894 22.0684 10.2987 21.587 8.65208 21.055C6.90408 20.4724 5.48541 19.915 4.39608 19.383C3.33208 18.8257 2.39474 18.0277 1.58408 16.989C0.798745 15.925 0.406078 14.5444 0.406078 12.847C0.406078 11.1244 0.836745 9.65504 1.69808 8.43904C2.55941 7.19771 3.75008 6.26037 5.27008 5.62704C6.79008 4.99371 8.51275 4.67704 10.4381 4.67704C13.5541 4.67704 16.0367 5.41171 17.8861 6.88104C19.7607 8.32504 20.7614 10.3644 20.8881 12.999H12.7941C12.7687 12.1884 12.5154 11.5804 12.0341 11.175C11.5781 10.7697 10.9827 10.567 10.2481 10.567C9.69075 10.567 9.23475 10.7317 8.88008 11.061C8.52541 11.3904 8.34808 11.859 8.34808 12.467C8.34808 12.9737 8.53808 13.417 8.91808 13.797C9.32341 14.1517 9.81741 14.4684 10.4001 14.747C10.9827 15.0004 11.8441 15.3297 12.9841 15.735C14.6814 16.3177 16.0747 16.9004 17.1641 17.483C18.2787 18.0404 19.2287 18.8384 20.0141 19.877C20.8247 20.8904 21.2301 22.1824 21.2301 23.753C21.2301 25.349 20.8247 26.7804 20.0141 28.047C19.2287 29.3137 18.0761 30.3144 16.5561 31.049C15.0614 31.7837 13.2881 32.151 11.2361 32.151Z" fill="black"/>
<path d="M32.1405 3.76504V31.885H24.6925V3.76504H32.1405Z" fill="black"/>
<path d="M40.144 8.59104C38.8267 8.59104 37.7627 8.23637 36.952 7.52704C36.1667 6.79237 35.774 5.88037 35.774 4.79104C35.774 3.67637 36.1667 2.75171 36.952 2.01704C37.7627 1.28237 38.8267 0.915039 40.144 0.915039C41.436 0.915039 42.4747 1.28237 43.26 2.01704C44.0707 2.75171 44.476 3.67637 44.476 4.79104C44.476 5.88037 44.0707 6.79237 43.26 7.52704C42.4747 8.23637 41.436 8.59104 40.144 8.59104ZM43.83 10.567V31.885H36.382V10.567H43.83Z" fill="black"/>
<path d="M46.8554 21.207C46.8554 19.003 47.3114 17.0777 48.2234 15.431C49.1354 13.7844 50.4021 12.5177 52.0234 11.631C53.6701 10.7444 55.5448 10.301 57.6474 10.301C60.3581 10.301 62.6381 11.0484 64.4874 12.543C66.3368 14.0124 67.5274 16.077 68.0594 18.737H60.1554C59.6994 17.3437 58.8128 16.647 57.4954 16.647C56.5581 16.647 55.8108 17.0397 55.2534 17.825C54.7214 18.585 54.4554 19.7124 54.4554 21.207C54.4554 22.7017 54.7214 23.8417 55.2534 24.627C55.8108 25.4124 56.5581 25.805 57.4954 25.805C58.8381 25.805 59.7248 25.1084 60.1554 23.715H68.0594C67.5274 26.3497 66.3368 28.4144 64.4874 29.909C62.6381 31.4037 60.3581 32.151 57.6474 32.151C55.5448 32.151 53.6701 31.7077 52.0234 30.821C50.4021 29.9344 49.1354 28.6677 48.2234 27.021C47.3114 25.3744 46.8554 23.4364 46.8554 21.207Z" fill="black"/>
<path d="M84.4915 31.885L78.6015 23.145V31.885H71.1535V3.76504H78.6015V18.927L84.4915 10.567H93.4215L85.0235 21.283L93.5735 31.885H84.4915Z" fill="black"/>
</svg>
