<svg width="17" height="12" viewBox="0 0 17 12" fill="none" xmlns="http://www.w3.org/2000/svg">
<path d="M0.5 0.885255C0.5 0.609113 0.723858 0.385254 1 0.385254H16C16.2761 0.385254 16.5 0.609111 16.5 0.885254C16.5 1.1614 16.2761 1.38525 16 1.38525L1 1.38526C0.723858 1.38526 0.5 1.1614 0.5 0.885255Z" fill="black"/>
<path d="M4.25 5.88526C4.25 5.60911 4.47386 5.38526 4.75 5.38526L16 5.38526C16.2761 5.38526 16.5 5.60911 16.5 5.88526C16.5 6.1614 16.2761 6.38526 16 6.38526L4.75 6.38526C4.47386 6.38526 4.25 6.1614 4.25 5.88526Z" fill="black"/>
<path d="M8.5 10.3853C8.22386 10.3853 8 10.6091 8 10.8853C8 11.1614 8.22386 11.3853 8.5 11.3853L16 11.3853C16.2761 11.3853 16.5 11.1614 16.5 10.8853C16.5 10.6091 16.2761 10.3853 16 10.3853L8.5 10.3853Z" fill="black"/>
</svg>
