<svg width="21" height="18" viewBox="0 0 21 18" fill="none" xmlns="http://www.w3.org/2000/svg">
<path fill-rule="evenodd" clip-rule="evenodd" d="M0.1875 16.4478C0.1875 16.1991 0.286272 15.9607 0.462088 15.7848C0.637903 15.609 0.87636 15.5103 1.125 15.5103H19.875C20.1236 15.5103 20.3621 15.609 20.5379 15.7848C20.7137 15.9607 20.8125 16.1991 20.8125 16.4478C20.8125 16.6964 20.7137 16.9349 20.5379 17.1107C20.3621 17.2865 20.1236 17.3853 19.875 17.3853H1.125C0.87636 17.3853 0.637903 17.2865 0.462088 17.1107C0.286272 16.9349 0.1875 16.6964 0.1875 16.4478ZM0.1875 8.94775C0.1875 8.69911 0.286272 8.46066 0.462088 8.28484C0.637903 8.10903 0.87636 8.01025 1.125 8.01025H19.875C20.1236 8.01025 20.3621 8.10903 20.5379 8.28484C20.7137 8.46066 20.8125 8.69911 20.8125 8.94775C20.8125 9.19639 20.7137 9.43485 20.5379 9.61067C20.3621 9.78648 20.1236 9.88525 19.875 9.88525H1.125C0.87636 9.88525 0.637903 9.78648 0.462088 9.61067C0.286272 9.43485 0.1875 9.19639 0.1875 8.94775ZM0.1875 1.44775C0.1875 1.19911 0.286272 0.960657 0.462088 0.784841C0.637903 0.609026 0.87636 0.510254 1.125 0.510254H19.875C20.1236 0.510254 20.3621 0.609026 20.5379 0.784841C20.7137 0.960657 20.8125 1.19911 20.8125 1.44775C20.8125 1.69639 20.7137 1.93485 20.5379 2.11067C20.3621 2.28648 20.1236 2.38525 19.875 2.38525H1.125C0.87636 2.38525 0.637903 2.28648 0.462088 2.11067C0.286272 1.93485 0.1875 1.69639 0.1875 1.44775Z" fill="#4C5866"/>
</svg>
