<svg width="30" height="31" viewBox="0 0 30 31" fill="none" xmlns="http://www.w3.org/2000/svg">
<path fill-rule="evenodd" clip-rule="evenodd" d="M6.75 7.63525C6.94891 7.43634 7.2187 7.32459 7.5 7.32459C7.7813 7.32459 8.05109 7.43634 8.25 7.63525L23.25 22.6352C23.4489 22.8341 23.5606 23.1039 23.5606 23.3852C23.5606 23.6665 23.4489 23.9363 23.25 24.1352C23.0511 24.3341 22.7813 24.4459 22.5 24.4459C22.2187 24.4459 21.9489 24.3341 21.75 24.1352L6.75 9.13525C6.55109 8.93634 6.43934 8.66656 6.43934 8.38525C6.43934 8.10395 6.55109 7.83417 6.75 7.63525Z" fill="#2C2D35"/>
<path fill-rule="evenodd" clip-rule="evenodd" d="M23.25 7.63525C23.4489 7.83417 23.5607 8.10395 23.5607 8.38525C23.5607 8.66656 23.4489 8.93634 23.25 9.13525L8.25001 24.1352C8.0511 24.3341 7.78132 24.4459 7.50001 24.4459C7.21871 24.4459 6.94893 24.3341 6.75002 24.1352C6.55111 23.9363 6.43936 23.6665 6.43936 23.3852C6.43936 23.1039 6.5511 22.8342 6.75002 22.6352L21.75 7.63525C21.9489 7.43634 22.2187 7.3246 22.5 7.3246C22.7813 7.3246 23.0511 7.43634 23.25 7.63525Z" fill="#2C2D35"/>
</svg>
