<svg width="93" height="65" viewBox="0 0 93 65" fill="none" xmlns="http://www.w3.org/2000/svg">
<g filter="url(#filter0_d_715_615)">
<path d="M9 9.88525L12.6875 10.8853H16.375H23.75H38.5H64C66.2091 10.8853 68 12.6761 68 14.8853V37.8853C68 40.0944 66.2091 41.8853 64 41.8853H38.5H23.75H16.375C16.375 41.8853 14 41.8853 12.6875 41.8853C11.375 41.8853 9 40.3853 9 40.3853V9.88525Z" fill="black"/>
</g>
<path d="M33.0043 19.7943V32.8853H31.1889L24.5348 23.2844H24.4134V32.8853H22.4382V19.7943H24.2663L30.9268 29.408H31.0483V19.7943H33.0043ZM39.9636 33.0834C38.9963 33.0834 38.1632 32.8767 37.4643 32.4634C36.7697 32.0458 36.2328 31.4598 35.8535 30.7056C35.4785 29.947 35.291 29.0585 35.291 28.0401C35.291 27.0344 35.4785 26.148 35.8535 25.381C36.2328 24.6139 36.7612 24.0152 37.4387 23.5848C38.1206 23.1544 38.9174 22.9392 39.8294 22.9392C40.3833 22.9392 40.9203 23.0309 41.4402 23.2141C41.96 23.3973 42.4267 23.685 42.84 24.077C43.2534 24.4691 43.5794 24.9783 43.818 25.6047C44.0566 26.2269 44.176 26.9833 44.176 27.8739V28.5514H36.3713V27.1196H42.3031C42.3031 26.6168 42.2008 26.1715 41.9963 25.7837C41.7917 25.3916 41.5041 25.0827 41.1333 24.8568C40.7669 24.631 40.3365 24.5181 39.8422 24.5181C39.3052 24.5181 38.8365 24.6502 38.4359 24.9144C38.0396 25.1743 37.7328 25.5152 37.5154 25.9371C37.3024 26.3547 37.1958 26.8085 37.1958 27.2986V28.4172C37.1958 29.0735 37.3109 29.6317 37.541 30.0919C37.7754 30.5522 38.1014 30.9037 38.519 31.1466C38.9366 31.3853 39.4245 31.5046 39.9828 31.5046C40.345 31.5046 40.6752 31.4534 40.9735 31.3512C41.2718 31.2446 41.5297 31.087 41.747 30.8782C41.9643 30.6693 42.1305 30.4115 42.2456 30.1047L44.0545 30.4307C43.9096 30.9634 43.6497 31.43 43.2747 31.8306C42.9039 32.2269 42.4373 32.5358 41.8748 32.7574C41.3166 32.9747 40.6795 33.0834 39.9636 33.0834ZM48.4075 32.8853L45.5183 23.0671H47.4934L49.4174 30.2773H49.5133L51.4437 23.0671H53.4189L55.3365 30.2453H55.4324L57.3436 23.0671H59.3187L56.4359 32.8853H54.4863L52.492 25.7965H52.345L50.3507 32.8853H48.4075Z" fill="white"/>
<defs>
<filter id="filter0_d_715_615" x="0.9" y="0.785254" width="91.2" height="64.2" filterUnits="userSpaceOnUse" color-interpolation-filters="sRGB">
<feFlood flood-opacity="0" result="BackgroundImageFix"/>
<feColorMatrix in="SourceAlpha" type="matrix" values="0 0 0 0 0 0 0 0 0 0 0 0 0 0 0 0 0 0 127 0" result="hardAlpha"/>
<feOffset dx="8" dy="7"/>
<feGaussianBlur stdDeviation="8.05"/>
<feComposite in2="hardAlpha" operator="out"/>
<feColorMatrix type="matrix" values="0 0 0 0 0 0 0 0 0 0 0 0 0 0 0 0 0 0 0.25 0"/>
<feBlend mode="normal" in2="BackgroundImageFix" result="effect1_dropShadow_715_615"/>
<feBlend mode="normal" in="SourceGraphic" in2="effect1_dropShadow_715_615" result="shape"/>
</filter>
</defs>
</svg>
