<svg width="299" height="40" viewBox="0 0 299 40" fill="none" xmlns="http://www.w3.org/2000/svg">
<g clip-path="url(#clip0_861_668)">
<path d="M114.307 12.0919L119.647 8.16836H101.783V31.7455H119.647V27.8219H106.88V21.7834H117.771V17.8555H106.88V12.0912H114.307V12.0919ZM88.2957 17.3569H82.0929V12.0919H91.9979L97.3379 8.16336H76.9957V31.7455H87.6393C93.6122 31.7455 97.035 29.0448 97.035 24.3384C97.035 19.8384 93.9293 17.3569 88.2957 17.3569ZM87.41 27.8219H82.0929V21.2855H87.41C90.6443 21.2855 92.1536 22.3798 92.1536 24.5541C92.1536 26.7748 90.5572 27.8219 87.41 27.8219ZM134.121 8.16836H124.396V31.7455H129.492V25.0662H134.121C140.329 25.0662 144.186 21.8112 144.186 16.6055C144.182 11.4005 140.329 8.16836 134.121 8.16836ZM134.011 21.1426H129.492V12.0919H134.011C137.278 12.0919 139.076 13.6991 139.076 16.6148C139.076 19.5312 137.278 21.1426 134.011 21.1426ZM68.2429 26.6412C66.9357 27.3598 65.4122 27.7398 63.8429 27.7398C59.2465 27.7398 55.9115 24.4662 55.9115 19.9569C55.9115 15.4476 59.2465 12.1698 63.8436 12.1698C65.5822 12.1698 67.1415 12.6598 68.4815 13.6162L72.1379 10.9291L71.8943 10.7184C69.7615 8.8455 66.9079 7.85693 63.6457 7.85693C60.1086 7.85693 56.8972 9.04693 54.6036 11.2084C52.2965 13.3826 51.03 16.4455 51.03 19.8241C51.03 23.2212 52.2965 26.3248 54.5943 28.5684C56.8972 30.8162 60.1043 32.0569 63.6186 32.0569C67.2929 32.0569 70.5043 30.7798 72.6793 28.4498L69.3807 26.0226L68.2429 26.6412Z" fill="white"/>
<path d="M177.676 14.0286L170.089 26.545H167.964L160.206 14.1936V31.7229H155.991V8.17285H161.317L169.139 20.9921L176.896 8.17285H181.888V31.7286H177.672V14.0286H177.676ZM208.936 31.7278H204.45L202.193 26.1421H191.371L189.146 31.7278H184.866L194.44 8.17285H199.229L208.936 31.7278ZM200.642 22.2693L196.766 12.6093L192.889 22.2693H200.642ZM216.149 24.3886V31.7229H211.932V8.17285H219.791C227.241 8.17285 230.411 10.8329 230.411 16.1486C230.411 21.6329 226.704 24.3936 219.791 24.3936H216.149V24.3886ZM216.149 12.0414V20.52H220.094C224.007 20.52 226.03 19.2429 226.03 16.0429C226.03 13.15 224.278 12.0371 220.163 12.0371H216.149V12.0414ZM238.944 31.7278H234.729V8.17285H238.944V18.0664H242.486L250.074 8.17357H255.199L246.198 19.3807L256.653 31.7321H251.253L242.688 21.5364H238.944V31.7278ZM274.719 21.5321H263.86V27.8593H276.339V31.7278H259.649V8.17285H275.971V12.0414H263.864V17.6593H274.724V21.5321H274.719ZM298.561 12.0414H290.601V31.7271H286.385V12.0414H278.564V8.17285H298.561V12.0414Z" fill="white"/>
<path d="M36.1008 7.77148C37.0574 8.99794 37.8679 10.3317 38.5157 11.7458L20.1536 25.1772L12.4822 20.4043V14.6622L20.1536 19.4358L36.1008 7.77148Z" fill="white"/>
<path d="M4.65571 19.9993C4.65571 19.7421 4.66214 19.4857 4.675 19.2314L0.025 19C0.00928571 19.3314 0 19.6643 0 19.9986C0 25.52 2.255 30.5214 5.90286 34.1414L9.19929 30.87C6.395 28.0843 4.65571 24.2393 4.65571 19.9986V19.9993Z" fill="white"/>
<path d="M20.1514 4.61932C20.4114 4.61932 20.6692 4.62861 20.9257 4.64075L21.1585 0.0250368C20.823 0.00880861 20.4872 0.000472969 20.1514 3.67543e-05C14.8133 -0.0101472 9.68895 2.09636 5.90137 5.85789L9.19708 9.12932C12.1079 6.23568 16.047 4.6139 20.1514 4.61932Z" fill="white"/>
<path d="M20.1529 35.3792C19.8936 35.3792 19.6358 35.3735 19.3793 35.3606L19.1465 39.9749C19.4801 39.9906 19.8158 39.9999 20.1529 39.9999C25.7172 39.9999 30.7558 37.762 34.4029 34.142L31.1072 30.8706C28.1955 33.7627 24.2568 35.3837 20.1529 35.3792Z" fill="white"/>
<path d="M28.8907 7.3029L32.8107 4.43647C29.2218 1.55623 24.7553 -0.00928437 20.1536 4.14254e-05V4.62076C23.2695 4.61526 26.3146 5.55004 28.8907 7.3029Z" fill="white"/>
<path d="M40.3057 19.9993C40.3057 18.7758 40.1942 17.5793 39.9828 16.415L35.6449 19.5879C35.6478 19.7243 35.6514 19.8608 35.6514 19.9979C35.6514 24.5129 33.6799 28.5808 30.5457 31.3965L33.6742 34.8286C37.7464 31.1708 40.3057 25.8808 40.3057 19.9993Z" fill="white"/>
<path d="M20.1543 35.3794C15.6043 35.3794 11.5064 33.4223 8.66857 30.313L5.21143 33.418C7.10558 35.4961 9.41336 37.1552 11.9866 38.2888C14.5599 39.4223 17.3417 40.0053 20.1536 40.0001V35.3787L20.1543 35.3794Z" fill="white"/>
<path d="M9.76071 8.59913L6.63214 5.16699C2.55857 8.82628 0 14.1163 0 19.9977H4.65571C4.65714 15.4813 6.62714 11.4148 9.76071 8.59913Z" fill="white"/>
</g>
<defs>
<clipPath id="clip0_861_668">
<rect width="298.571" height="40" fill="white"/>
</clipPath>
</defs>
</svg>
