<svg width="29" height="28" viewBox="0 0 29 28" fill="none" xmlns="http://www.w3.org/2000/svg">
<path fill-rule="evenodd" clip-rule="evenodd" d="M20.2977 20.6653C18.146 22.7621 15.1735 24.059 11.8901 24.059C5.32338 24.059 0 18.8714 0 12.4721C0 6.07288 5.32338 0.885254 11.8901 0.885254C18.4568 0.885254 23.7802 6.07288 23.7802 12.4721C23.7802 15.0286 22.9306 17.3917 21.4916 19.3079L28.7321 26.3637C29.0893 26.7118 29.0893 27.2761 28.7321 27.6242C28.3749 27.9723 27.7958 27.9723 27.4386 27.6242L20.2977 20.6653ZM21.951 12.4721C21.951 17.8869 17.4466 22.2764 11.8901 22.2764C6.33365 22.2764 1.82925 17.8869 1.82925 12.4721C1.82925 7.05739 6.33365 2.66785 11.8901 2.66785C17.4466 2.66785 21.951 7.05739 21.951 12.4721Z" fill="black"/>
</svg>
