<svg width="32" height="27" viewBox="0 0 32 27" fill="none" xmlns="http://www.w3.org/2000/svg">
<path d="M0.014469 2.62396C-0.0654355 2.22343 0.193651 1.83379 0.593155 1.75368C1.08263 1.65553 1.55558 1.555 2.00824 1.45878C3.20465 1.20447 4.25932 0.980283 5.10273 0.909821C5.69519 0.860325 6.27582 0.875283 6.78698 1.05145C7.3175 1.23429 7.73964 1.57978 8.01425 2.10389C8.38118 2.65759 8.65849 3.12096 8.89542 3.51686L8.89717 3.51978C9.14256 3.92981 9.33469 4.25 9.54495 4.54512C9.78816 4.88648 10.0626 5.20413 10.4783 5.55941C10.617 5.49909 10.7654 5.45993 10.9187 5.44456C14.6768 5.06779 18.7951 4.95838 22.2562 5.03608C23.9876 5.07495 25.5697 5.16096 26.8713 5.28649C28.1327 5.40815 29.2482 5.57679 29.9744 5.8195C30.7596 6.08189 31.2286 6.69015 31.4927 7.23375C31.7579 7.77949 31.8933 8.40525 31.9553 9.0137C32.0803 10.2391 31.9386 11.7093 31.5847 13.1284C31.2302 14.5498 30.636 16.0288 29.7739 17.2362C28.9164 18.437 27.6909 19.5034 26.0619 19.7756C23.6878 20.1723 20.2344 20.1646 17.4712 20.0723C16.0692 20.0254 14.8088 19.9552 13.8989 19.8967C13.4436 19.8675 13.0753 19.8411 12.82 19.822C12.6924 19.8124 12.5929 19.8047 12.5249 19.7993L12.4469 19.793L12.4192 19.7907C12.419 19.7907 12.4184 19.7906 12.5409 18.3166C12.5409 18.3166 21.3932 19.0561 25.8194 18.3166C30.2456 17.577 31.7209 7.96237 29.5079 7.22276C27.4402 6.53174 19.5769 6.21893 12.5362 6.78401C12.2897 6.80379 12.0442 6.82465 11.8 6.84661C11.5537 6.86875 11.3088 6.892 11.0655 6.9164L12.5409 18.3166L12.4192 19.7907C11.7265 19.7328 11.1672 19.198 11.0778 18.5069L9.60242 7.10672C9.58701 6.98771 9.58623 6.86833 9.59939 6.75107C9.06107 6.30183 8.68185 5.87853 8.34439 5.40488C8.09666 5.05718 7.87623 4.68884 7.64081 4.29546L7.63204 4.28082C7.39025 3.8768 7.12149 3.42786 6.76328 2.88917C6.74631 2.86365 6.73094 2.8371 6.71726 2.80967C6.6222 2.61905 6.49973 2.51659 6.30735 2.45028C6.08083 2.37221 5.73934 2.34094 5.22525 2.38389C4.48062 2.4461 3.56699 2.64027 2.41957 2.88412C1.94819 2.9843 1.4373 3.09288 0.882515 3.20413C0.483011 3.28424 0.0943736 3.02449 0.014469 2.62396Z" fill="black"/>
<path fill-rule="evenodd" clip-rule="evenodd" d="M14.754 26.8853C16.3837 26.8853 17.7048 25.5608 17.7048 23.9269C17.7048 22.2931 16.3837 20.9686 14.754 20.9686C13.1243 20.9686 11.8032 22.2931 11.8032 23.9269C11.8032 25.5608 13.1243 26.8853 14.754 26.8853ZM14.754 25.8498C15.8133 25.8498 16.672 24.9889 16.672 23.9269C16.672 22.8649 15.8133 22.004 14.754 22.004C13.6947 22.004 12.836 22.8649 12.836 23.9269C12.836 24.9889 13.6947 25.8498 14.754 25.8498Z" fill="black"/>
<path fill-rule="evenodd" clip-rule="evenodd" d="M28.0325 23.9269C28.0325 25.5608 26.7114 26.8853 25.0817 26.8853C23.452 26.8853 22.1309 25.5608 22.1309 23.9269C22.1309 22.2931 23.452 20.9686 25.0817 20.9686C26.7114 20.9686 28.0325 22.2931 28.0325 23.9269ZM26.9997 23.9269C26.9997 24.9889 26.141 25.8498 25.0817 25.8498C24.0224 25.8498 23.1637 24.9889 23.1637 23.9269C23.1637 22.8649 24.0224 22.004 25.0817 22.004C26.141 22.004 26.9997 22.8649 26.9997 23.9269Z" fill="black"/>
</svg>
