<svg width="22" height="23" viewBox="0 0 22 23" fill="none" xmlns="http://www.w3.org/2000/svg">
<g clip-path="url(#clip0_546_482)">
<path d="M8.25065 21.0521C8.75691 21.0521 9.16732 20.6417 9.16732 20.1354C9.16732 19.6292 8.75691 19.2188 8.25065 19.2188C7.74439 19.2188 7.33398 19.6292 7.33398 20.1354C7.33398 20.6417 7.74439 21.0521 8.25065 21.0521Z" stroke="#2C2D35" stroke-width="2" stroke-linecap="round" stroke-linejoin="round"/>
<path d="M18.3327 21.0521C18.8389 21.0521 19.2493 20.6417 19.2493 20.1354C19.2493 19.6292 18.8389 19.2188 18.3327 19.2188C17.8264 19.2188 17.416 19.6292 17.416 20.1354C17.416 20.6417 17.8264 21.0521 18.3327 21.0521Z" stroke="#2C2D35" stroke-width="2" stroke-linecap="round" stroke-linejoin="round"/>
<path d="M0.916016 1.80176H4.58268L7.03935 14.0759C7.12317 14.498 7.35276 14.8771 7.68793 15.1469C8.0231 15.4167 8.44249 15.56 8.87268 15.5518H17.7827C18.2129 15.56 18.6323 15.4167 18.9674 15.1469C19.3026 14.8771 19.5322 14.498 19.616 14.0759L21.0827 6.38509H5.49935" stroke="#2C2D35" stroke-width="2" stroke-linecap="round" stroke-linejoin="round"/>
</g>
<defs>
<clipPath id="clip0_546_482">
<rect width="22" height="22" fill="white" transform="translate(0 0.885254)"/>
</clipPath>
</defs>
</svg>
