<svg width="980" height="317" viewBox="0 0 980 317" fill="none" xmlns="http://www.w3.org/2000/svg">
<path d="M164.568 113C163.811 103.53 160.259 96.1439 153.915 90.8409C147.665 85.5379 138.148 82.8864 125.364 82.8864C117.22 82.8864 110.543 83.8807 105.335 85.8693C100.221 87.7633 96.4336 90.3674 93.9715 93.6818C91.5094 96.9962 90.231 100.784 90.1363 105.045C89.9469 108.549 90.5624 111.722 91.9828 114.562C93.498 117.309 95.8654 119.818 99.0851 122.091C102.305 124.269 106.424 126.258 111.443 128.057C116.462 129.856 122.428 131.466 129.341 132.886L153.204 138C169.303 141.409 183.081 145.907 194.54 151.494C205.998 157.081 215.373 163.663 222.665 171.239C229.956 178.72 235.307 187.148 238.716 196.523C242.22 205.898 244.019 216.125 244.114 227.205C244.019 246.333 239.237 262.527 229.767 275.784C220.297 289.042 206.756 299.127 189.142 306.04C171.623 312.953 150.553 316.409 125.932 316.409C100.648 316.409 78.5832 312.669 59.7385 305.188C40.9885 297.706 26.4052 286.201 15.9885 270.67C5.66656 255.045 0.458222 235.064 0.363525 210.727H75.3635C75.837 219.629 78.0624 227.11 82.0397 233.17C86.0169 239.231 91.6041 243.824 98.801 246.949C106.093 250.074 114.757 251.636 124.795 251.636C133.223 251.636 140.278 250.595 145.96 248.511C151.642 246.428 155.951 243.54 158.886 239.847C161.822 236.153 163.337 231.939 163.432 227.205C163.337 222.754 161.869 218.871 159.028 215.557C156.282 212.148 151.737 209.117 145.392 206.466C139.047 203.72 130.477 201.163 119.682 198.795L90.7044 192.545C64.9469 186.958 44.6344 177.631 29.7669 164.562C14.9942 151.4 7.65519 133.455 7.74989 110.727C7.65519 92.2614 12.5794 76.1155 22.5226 62.2898C32.5605 48.3693 46.4336 37.5265 64.1419 29.7614C81.945 21.9962 102.352 18.1136 125.364 18.1136C148.848 18.1136 169.161 22.0436 186.301 29.9034C203.441 37.7633 216.651 48.8428 225.932 63.1421C235.307 77.3466 240.042 93.9659 240.136 113H164.568Z" fill="white" fill-opacity="0.08"/>
<path d="M353.702 22.0909V313H275.293V22.0909H353.702Z" fill="white" fill-opacity="0.08"/>
<path d="M393.652 313V94.8182H472.061V313H393.652ZM432.856 72.0909C422.25 72.0909 413.159 68.5871 405.584 61.5796C398.008 54.572 394.22 46.1439 394.22 36.2954C394.22 26.447 398.008 18.0189 405.584 11.0114C413.159 4.00378 422.25 0.5 432.856 0.5C443.557 0.5 452.648 4.00378 460.129 11.0114C467.705 18.0189 471.493 26.447 471.493 36.2954C471.493 46.1439 467.705 54.572 460.129 61.5796C452.648 68.5871 443.557 72.0909 432.856 72.0909Z" fill="white" fill-opacity="0.08"/>
<path d="M617.125 316.977C593.451 316.977 573.186 312.29 556.329 302.915C539.473 293.445 526.547 280.282 517.551 263.426C508.555 246.475 504.057 226.826 504.057 204.477C504.057 182.129 508.555 162.527 517.551 145.67C526.547 128.72 539.473 115.557 556.329 106.182C573.186 96.7121 593.451 91.9773 617.125 91.9773C638.526 91.9773 657.04 95.8598 672.665 103.625C688.384 111.295 700.553 122.186 709.17 136.295C717.788 150.311 722.144 166.788 722.239 185.727H649.511C648.47 174.269 645.155 165.557 639.568 159.591C634.076 153.53 626.973 150.5 618.261 150.5C611.443 150.5 605.477 152.489 600.364 156.466C595.25 160.348 591.273 166.267 588.432 174.222C585.591 182.081 584.17 191.977 584.17 203.909C584.17 215.841 585.591 225.784 588.432 233.739C591.273 241.598 595.25 247.517 600.364 251.494C605.477 255.377 611.443 257.318 618.261 257.318C624.038 257.318 629.151 255.992 633.602 253.341C638.053 250.595 641.651 246.617 644.398 241.409C647.239 236.106 648.943 229.667 649.511 222.091H722.239C721.954 241.314 717.551 258.076 709.028 272.375C700.506 286.58 688.432 297.564 672.807 305.33C657.276 313.095 638.716 316.977 617.125 316.977Z" fill="white" fill-opacity="0.08"/>
<path d="M825.044 261.295L825.612 168.114H835.839L888.68 94.8182H976.748L888.112 209.023H865.953L825.044 261.295ZM754.589 313V22.0909H832.998V313H754.589ZM889.248 313L839.248 226.636L890.385 170.955L979.021 313H889.248Z" fill="white" fill-opacity="0.08"/>
</svg>
