<svg width="25" height="15" viewBox="0 0 25 15" fill="none" xmlns="http://www.w3.org/2000/svg">
<path fill-rule="evenodd" clip-rule="evenodd" d="M23.949 1.81372C24.115 1.26772 23.949 0.865723 23.154 0.865723H20.529C19.861 0.865723 19.553 1.21272 19.386 1.59572C19.386 1.59572 18.051 4.79172 16.16 6.86772C15.548 7.46972 15.27 7.66072 14.936 7.66072C14.769 7.66072 14.518 7.46972 14.518 6.92272V1.81372C14.518 1.15772 14.334 0.865723 13.778 0.865723H9.65002C9.23302 0.865723 8.98202 1.16972 8.98202 1.45872C8.98202 2.07972 9.92802 2.22372 10.025 3.97172V7.76972C10.025 8.60272 9.87202 8.75372 9.53802 8.75372C8.64802 8.75372 6.48302 5.54272 5.19802 1.86872C4.94902 1.15372 4.69702 0.865723 4.02602 0.865723H1.39902C0.649023 0.865723 0.499023 1.21272 0.499023 1.59572C0.499023 2.27772 1.38902 5.66572 4.64402 10.1467C6.81402 13.2067 9.86902 14.8657 12.652 14.8657C14.321 14.8657 14.527 14.4977 14.527 13.8627V11.5497C14.527 10.8127 14.685 10.6657 15.214 10.6657C15.604 10.6657 16.271 10.8577 17.829 12.3327C19.609 14.0817 19.902 14.8657 20.904 14.8657H23.529C24.279 14.8657 24.655 14.4977 24.439 13.7697C24.201 13.0457 23.351 11.9947 22.224 10.7477C21.612 10.0377 20.694 9.27272 20.415 8.88972C20.026 8.39872 20.137 8.17972 20.415 7.74272C20.415 7.74272 23.615 3.31672 23.948 1.81372H23.949Z" fill="black"/>
</svg>
